<?xml version="1.0" standalone="no"?>
<!DOCTYPE svg PUBLIC "-//W3C//DTD SVG 20010904//EN"
 "http://www.w3.org/TR/2001/REC-SVG-20010904/DTD/svg10.dtd">
<svg version="1.0" xmlns="http://www.w3.org/2000/svg"
 width="230.000000pt" height="230.000000pt" viewBox="0 0 230.000000 230.000000"
 preserveAspectRatio="xMidYMid meet">
<metadata>
Created by potrace 1.11, written by Peter Selinger 2001-2013
</metadata>
<g transform="translate(0.000000,230.000000) scale(0.100000,-0.100000)"
fill="#000000" stroke="none">
<path d="M0 1150 l0 -1150 91 0 91 0 -6 83 c-8 116 -17 865 -10 850 3 -7 12
-13 19 -13 12 0 41 -26 88 -80 8 -8 17 -23 20 -32 4 -10 10 -18 15 -18 5 0 10
-23 11 -50 1 -49 17 -122 41 -188 9 -24 9 -36 1 -46 -8 -10 -8 -21 -1 -41 7
-17 7 -32 1 -39 -5 -6 -7 -42 -5 -81 5 -82 -2 -125 -21 -125 -15 0 -30 -33
-17 -38 5 -1 7 -16 4 -32 -3 -22 0 -32 13 -36 9 -4 12 -10 7 -13 -5 -3 -12
-15 -16 -26 -5 -18 -2 -21 22 -20 27 1 63 13 72 25 11 14 67 48 90 55 14 4 42
23 64 41 21 18 51 36 67 39 16 4 29 11 29 16 0 6 4 8 9 5 5 -3 20 5 32 19 13
13 28 25 33 25 16 0 -26 -39 -75 -71 -27 -17 -49 -33 -49 -35 0 -8 98 49 131
77 23 19 42 27 52 23 21 -8 22 -24 1 -24 -19 0 -13 -25 7 -26 37 -3 39 -5 34
-29 -3 -14 -7 -36 -10 -50 -4 -19 -2 -23 10 -19 8 4 15 16 15 29 0 12 6 28 14
35 8 6 17 21 19 33 4 18 5 17 6 -5 0 -16 -4 -28 -11 -28 -7 0 -6 -5 4 -13 9
-6 18 -24 22 -39 5 -22 2 -27 -16 -31 -21 -4 -21 -4 -3 -6 21 -1 45 -47 45
-84 0 -16 34 -17 423 -17 l424 0 11 25 c7 15 8 25 2 25 -6 0 -10 -7 -10 -15 0
-8 -4 -15 -8 -15 -4 0 -8 9 -8 19 0 11 3 19 6 19 18 -2 29 4 34 18 3 9 2 12
-5 9 -13 -9 -5 23 37 154 19 57 34 109 34 116 0 7 7 16 16 19 10 4 14 14 11
26 -3 11 -1 18 3 15 8 -5 21 44 34 125 9 54 -19 101 -74 122 l-45 17 34 0 c19
1 57 -6 85 -13 28 -8 107 -22 176 -31 69 -9 137 -19 153 -22 l27 -5 0 846 0
846 -464 0 -465 0 -4 -42 -4 -43 -1 43 -2 42 -680 0 -680 0 0 -1150z m832 468
c12 -12 23 -16 27 -10 7 11 101 7 110 -5 3 -5 22 -10 41 -12 68 -6 85 -8 90
-11 3 -1 26 -1 53 0 33 1 47 -2 47 -12 0 -7 11 -25 24 -39 17 -19 22 -33 18
-57 -2 -19 2 -41 10 -55 17 -25 13 -47 -8 -47 -8 0 -14 -4 -14 -10 0 -5 -9
-10 -21 -10 -11 0 -18 -4 -15 -9 9 -14 -18 -31 -41 -27 -11 3 -33 -4 -49 -15
-16 -10 -35 -19 -43 -19 -8 0 -22 -6 -30 -14 -23 -20 -72 -30 -69 -14 2 7 -3
12 -11 10 -7 -2 -23 5 -34 15 -14 13 -21 15 -24 6 -3 -10 -9 -9 -21 3 -12 12
-27 15 -59 10 -25 -3 -42 -2 -39 3 4 5 -20 7 -54 4 l-60 -6 -2 29 c-1 16 -1
47 0 69 0 36 0 37 -6 10 -7 -27 -8 -28 -16 -10 -5 11 -10 48 -11 82 -1 55 2
64 26 87 15 14 35 27 46 29 20 3 63 26 50 27 -22 1 5 15 32 17 21 2 39 -5 53
-19z m-670 -323 c2 -19 0 -35 -4 -35 -4 0 -8 16 -8 35 0 19 2 35 4 35 2 0 6
-16 8 -35z m5 -157 c-2 -24 -4 -7 -4 37 0 44 2 63 4 43 2 -21 2 -57 0 -80z
m869 32 c8 0 19 -11 26 -24 8 -20 7 -28 -5 -41 -13 -12 -15 -32 -12 -100 4
-74 2 -85 -12 -85 -13 0 -9 -9 15 -33 18 -18 32 -38 32 -44 0 -14 -119 -28
-131 -16 -5 5 -5 22 1 41 9 33 5 62 -10 62 -28 0 -71 -27 -96 -60 -16 -22 -41
-45 -56 -52 -16 -7 -28 -16 -28 -20 0 -5 -9 -8 -19 -8 -11 0 -23 -4 -26 -10
-3 -5 -17 -10 -31 -10 -17 0 -24 5 -24 20 0 11 -3 20 -7 20 -9 0 -9 3 -15 138
-4 83 -2 92 14 92 10 0 18 -7 18 -15 0 -8 6 -15 13 -15 8 0 22 -9 31 -19 20
-22 63 -20 125 5 46 19 71 18 72 -3 0 -15 3 -14 16 5 8 12 22 22 29 22 11 0
14 17 14 68 0 69 12 97 38 87 8 -3 20 -5 28 -5z m209 -20 c3 -5 1 -10 -4 -10
-6 0 -11 5 -11 10 0 6 2 10 4 10 3 0 8 -4 11 -10z m602 -12 c-3 -8 -6 -5 -6 6
-1 11 2 17 5 13 3 -3 4 -12 1 -19z m-1017 -12 c0 -3 -4 -8 -10 -11 -5 -3 -10
-1 -10 4 0 6 5 11 10 11 6 0 10 -2 10 -4z m990 -14 c0 -11 -11 -24 -25 -30
-33 -15 -35 -15 -35 2 0 12 25 31 58 45 1 1 2 -7 2 -17z m-409 -57 c0 -5 -5
-11 -12 -14 -7 -2 -9 1 -4 9 5 8 3 11 -6 8 -8 -3 -13 -11 -11 -17 1 -6 -2 -11
-8 -11 -14 0 -12 27 3 33 18 8 38 4 38 -8z m-29 -62 c29 -4 37 -10 41 -30 3
-19 0 -27 -14 -30 -10 -3 -17 -9 -14 -13 8 -13 -35 -19 -48 -7 -14 13 -67 41
-112 58 -16 6 -24 13 -17 16 6 3 9 9 6 15 -7 10 56 7 158 -9z m55 -315 c-3 -8
-6 -5 -6 6 -1 11 2 17 5 13 3 -3 4 -12 1 -19z m-185 -12 c4 -21 0 -25 -36 -30
-22 -4 -46 -12 -53 -17 -12 -10 -106 -14 -168 -7 -32 3 -50 38 -21 38 9 0 16
-6 16 -12 0 -10 2 -10 8 -1 8 13 102 33 174 37 26 1 51 5 54 9 13 13 22 7 26
-17z m-304 -103 c20 -15 39 -28 41 -30 2 -1 -4 -9 -13 -18 -15 -16 -15 -19 3
-43 15 -21 28 -26 70 -29 29 -1 60 -7 69 -12 11 -6 31 -4 57 5 31 11 45 11 63
2 24 -12 31 -41 8 -32 -13 5 -46 -20 -46 -36 0 -4 -10 -6 -22 -2 -17 4 -20 2
-15 -11 4 -11 2 -14 -9 -10 -8 3 -21 0 -29 -7 -12 -10 -15 -9 -15 4 0 19 1 19
-38 5 -34 -12 -117 5 -107 21 4 6 0 10 -8 10 -8 0 -17 7 -21 15 -3 8 -13 15
-22 15 -14 0 -14 2 -3 16 9 10 9 18 2 22 -6 4 -14 22 -18 40 -4 18 -13 36 -21
39 -20 7 -17 23 8 44 26 24 22 24 66 -8z m443 -20 c2 1 -2 -4 -10 -10 -8 -7
-11 -13 -7 -13 5 0 3 -6 -3 -13 -6 -8 -8 -17 -4 -20 3 -4 -6 -16 -20 -28 -15
-11 -27 -26 -27 -32 0 -7 -11 -12 -25 -12 -18 0 -25 5 -25 19 0 15 3 16 14 7
11 -10 16 -8 21 8 3 12 15 25 25 31 12 6 16 17 13 30 -7 26 15 54 32 40 6 -5
14 -9 16 -7z m-561 -253 c-20 -13 -33 -13 -25 0 3 6 14 10 23 10 15 0 15 -2 2
-10z"/>
<path d="M795 51 c-3 -5 0 -13 6 -17 7 -4 9 -3 5 4 -3 5 0 13 6 15 9 4 10 6 1
6 -6 1 -14 -3 -18 -8z"/>
</g>
</svg>
